<svg width="48" height="51" viewBox="0 0 48 51" fill="none" xmlns="http://www.w3.org/2000/svg">
<path d="M23.8929 4.50445C30.2767 4.50445 31.0327 4.53377 33.5434 4.65102C35.8766 4.7585 37.1366 5.16889 37.9766 5.51088C39.0872 5.96034 39.8899 6.50752 40.7205 7.37714C41.5605 8.25655 42.0738 9.08708 42.5032 10.2498C42.8298 11.1292 43.2218 12.4581 43.3245 14.8911C43.4365 17.5292 43.4645 18.3207 43.4645 24.9944C43.4645 31.6778 43.4365 32.4692 43.3245 35.0976C43.2218 37.5405 42.8298 38.8595 42.5032 39.7389C42.0738 40.9017 41.5512 41.742 40.7205 42.6116C39.8806 43.4909 39.0872 44.0284 37.9766 44.4779C37.1366 44.8198 35.8673 45.2303 33.5434 45.3377C31.0234 45.455 30.2674 45.4842 23.8929 45.4842C17.509 45.4842 16.753 45.455 14.2424 45.3377C11.9091 45.2303 10.6491 44.8198 9.80915 44.4779C8.6985 44.0284 7.89584 43.4813 7.0652 42.6116C6.22522 41.7322 5.71189 40.9017 5.28256 39.7389C4.95591 38.8595 4.56391 37.5307 4.46124 35.0976C4.34925 32.4595 4.32125 31.668 4.32125 24.9944C4.32125 18.311 4.34925 17.5195 4.46124 14.8911C4.56391 12.4483 4.95591 11.1292 5.28256 10.2498C5.71189 9.08708 6.23454 8.24677 7.0652 7.37714C7.90518 6.49776 8.6985 5.96034 9.80915 5.51088C10.6491 5.16889 11.9184 4.7585 14.2424 4.65102C16.753 4.53377 17.509 4.50445 23.8929 4.50445ZM23.8929 0C17.4063 0 16.5944 0.0293132 14.0464 0.146566C11.5078 0.263819 9.76248 0.693745 8.2505 1.30932C6.67321 1.95421 5.33856 2.80429 4.01325 4.20155C2.67862 5.58904 1.86663 6.98631 1.25064 8.62785C0.662653 10.2205 0.251995 12.0379 0.139997 14.6957C0.0279994 17.3729 0 18.223 0 25.0139C0 31.8048 0.0279994 32.6549 0.139997 35.3223C0.251995 37.9801 0.662653 39.8073 1.25064 41.3902C1.86663 43.0415 2.67862 44.4388 4.01325 45.8263C5.33856 47.2137 6.67321 48.0736 8.24118 48.7087C9.76248 49.3243 11.4984 49.7542 14.037 49.8715C16.585 49.9887 17.397 50.018 23.8835 50.018C30.3701 50.018 31.1821 49.9887 33.73 49.8715C36.2687 49.7542 38.0139 49.3243 39.5259 48.7087C41.0938 48.0736 42.4285 47.2137 43.7538 45.8263C45.0792 44.4388 45.9005 43.0415 46.5071 41.4C47.0951 39.8073 47.5058 37.9899 47.6178 35.3321C47.7298 32.6646 47.7578 31.8146 47.7578 25.0237C47.7578 18.2328 47.7298 17.3827 47.6178 14.7153C47.5058 12.0575 47.0951 10.2303 46.5071 8.64739C45.9191 6.9863 45.1071 5.58904 43.7725 4.20155C42.4472 2.81406 41.1125 1.95421 39.5446 1.31909C38.0233 0.703516 36.2873 0.27359 33.7487 0.156337C31.1914 0.0293132 30.3794 0 23.8929 0Z" fill="white"/>
<path d="M23.8929 12.165C17.1171 12.165 11.6199 17.9202 11.6199 25.014C11.6199 32.1077 17.1171 37.8629 23.8929 37.8629C30.6689 37.8629 36.166 32.1077 36.166 25.014C36.166 17.9202 30.6689 12.165 23.8929 12.165ZM23.8929 33.3487C19.4971 33.3487 15.9317 29.6161 15.9317 25.014C15.9317 20.4118 19.4971 16.6792 23.8929 16.6792C28.2888 16.6792 31.8541 20.4118 31.8541 25.014C31.8541 29.6161 28.2888 33.3487 23.8929 33.3487Z" fill="white"/>
<path d="M39.5167 11.6568C39.5167 13.3179 38.2287 14.6565 36.6514 14.6565C35.0648 14.6565 33.7861 13.3082 33.7861 11.6568C33.7861 9.99574 35.0742 8.6571 36.6514 8.6571C38.2287 8.6571 39.5167 10.0055 39.5167 11.6568Z" fill="white"/>
</svg>
